<?xml version="1.0" encoding="utf-8"?>
<!-- Generator: Adobe Illustrator 18.0.0, SVG Export Plug-In . SVG Version: 6.00 Build 0)  -->
<!DOCTYPE svg PUBLIC "-//W3C//DTD SVG 1.1//EN" "http://www.w3.org/Graphics/SVG/1.1/DTD/svg11.dtd">
<svg version="1.1" id="Layer_1" xmlns="http://www.w3.org/2000/svg" xmlns:xlink="http://www.w3.org/1999/xlink" x="0px" y="0px"
	 viewBox="0 0 145.2 107.7" enable-background="new 0 0 145.2 107.7" xml:space="preserve">
<g>
	<path d="M121.4,8.2c0,0,3-1.2,4.9-3.5H111c-19.3,0-34.9,16.1-34.9,36c0,19.9,15.6,36,34.9,36
		c17,0,31.1-12.5,34.2-29.1H133c-2.9,9.7-11.6,16.8-22,16.8c-12.7,0-23-10.6-23-23.7C88,27.6,98.3,17,111,17h10.4V8.2z M69.8,76.7
		v-36V8.3L57.9,21.7l0,19c0,13.1-10.3,23.7-23,23.7c-12.7,0-23-10.6-23-23.7c0-13.1,10.3-23.7,23-23.7h20.8L66.6,4.7H34.9
		C15.6,4.7,0,20.8,0,40.7c0,19.9,15.6,36,34.9,36c8.8,0,16.9-3.4,23-9v9c0,12.9-5.8,18.8-18.3,18.8H27.9l-10.8,12.2h22.5
		C58.5,107.7,69.8,96.1,69.8,76.7"/>
	<path d="M142.8,2.5v38.4h-6.9V17.4V15h-2.5h-5.7v-2.7c2.4-1.5,7.4-4.9,10.1-9.8H142.8 M145.2,0h-9
		c-2.8,6.6-11,10.9-11,10.9v6.6h8.1v25.9h11.9V0L145.2,0z"/>
</g>
</svg>
