<?xml version="1.0" encoding="utf-8"?>
<!-- Generator: Adobe Illustrator 21.0.0, SVG Export Plug-In . SVG Version: 6.00 Build 0)  -->
<svg version="1.1" id="Layer_1" xmlns="http://www.w3.org/2000/svg" xmlns:xlink="http://www.w3.org/1999/xlink" x="0px" y="0px"
	 viewBox="0 0 128 128" style="enable-background:new 0 0 128 128;" xml:space="preserve">
<style type="text/css">
	.st0{fill:#FFFFFF;}
</style>
<g>
	<path class="st0" d="M115,33.7c5.3,6.6,8,13.7,8,21.5s-2.7,14.9-8,21.5c-5.3,6.6-12.6,11.7-21.8,15.5c-9.2,3.8-19.2,5.7-30,5.7
		c-3.1,0-6.3-0.2-9.7-0.5c-8.8,7.8-19,13.2-30.7,16.1c-2.2,0.6-4.7,1.1-7.6,1.5c-0.8,0.1-1.4-0.1-2-0.6c-0.6-0.5-1-1.1-1.2-1.9v-0.1
		c-0.1-0.2-0.1-0.4,0-0.8c0.1-0.4,0.2-0.6,0.1-0.7c0-0.1,0.1-0.3,0.3-0.6c0.2-0.3,0.4-0.5,0.4-0.6c0-0.1,0.2-0.3,0.5-0.6
		c0.3-0.3,0.4-0.5,0.5-0.6c0.3-0.4,1-1.1,2.1-2.3c1.1-1.2,1.8-2,2.3-2.5c0.5-0.5,1.2-1.4,2.1-2.6c0.9-1.2,1.6-2.4,2.2-3.4
		c0.5-1,1.1-2.3,1.8-3.9c0.7-1.6,1.2-3.3,1.7-5.1c-7-4-12.5-8.9-16.5-14.7c-4-5.8-6-12.1-6-18.8c0-5.8,1.6-11.3,4.7-16.6
		c3.2-5.3,7.4-9.8,12.7-13.6c5.3-3.8,11.7-6.9,19.1-9.1c7.4-2.2,15.1-3.4,23.2-3.4c10.9,0,20.9,1.9,30,5.7
		C102.4,22,109.7,27.2,115,33.7z"/>
</g>
</svg>
